<?xml version="1.0" encoding="UTF-8" standalone="no"?>
<svg
   width="750"
   height="625"
   viewBox="0 0 750 625"
   version="1.1"
   sodipodi:docname="drawing.svg"
   id="svg17"
   inkscape:version="1.1-alpha (17bc9184, 2021-03-28)"
   xmlns:inkscape="http://www.inkscape.org/namespaces/inkscape"
   xmlns:sodipodi="http://sodipodi.sourceforge.net/DTD/sodipodi-0.dtd"
   xmlns="http://www.w3.org/2000/svg"
   xmlns:svg="http://www.w3.org/2000/svg">
  <defs
     id="defs19" />
  <sodipodi:namedview
     pagecolor="#b1b1b1"
     bordercolor="#2a2a2a"
     borderopacity="1"
     inkscape:pageshadow="0"
     inkscape:pageopacity="0"
     inkscape:pagecheckerboard="true"
     inkscape:showpageshadow="false"
     inkscape:document-units="px"
     showgrid="false"
     units="px"
     width="750px"
     height="1140px"
     borderlayer="true"
     inkscape:zoom="0.85"
     inkscape:cx="379.41176"
     inkscape:cy="412.35294"
     inkscape:current-layer="layer1"
     id="namedview2"
     objecttolerance="10.0"
     gridtolerance="10.0"
     guidetolerance="10.0"
     inkscape:window-width="1820"
     inkscape:window-height="1003"
     inkscape:window-x="218"
     inkscape:window-y="23"
     inkscape:window-maximized="0" />
  <g
     inkscape:label="Background"
     inkscape:groupmode="layer"
     sodipodi:insensitive="true"
     id="bg">
    <rect
       style="fill:#ffffff;fill-opacity:1;stroke-width:1.109;stop-color:#000000"
       id="rect194"
       width="750"
       height="625"
       x="0"
       y="0" />
    <path
       id="rect194-3"
       style="fill:#ffffff;fill-opacity:1;stroke-width:1.109;stop-color:#000000"
       d="m 800,0 v 360 h 54.57812 V 288.34961 H 1705.4219 V 360 H 1760 V 0 Z" />
    <rect
       style="fill:#ffffff;fill-opacity:1;stroke-width:1.109;stop-color:#000000"
       id="rect1266"
       width="700"
       height="220"
       x="930"
       y="400" />
    <text
       xml:space="preserve"
       style="font-size:21.3333px;line-height:1.25;font-family:Aclonica;-inkscape-font-specification:Aclonica;text-align:start;letter-spacing:0px;word-spacing:0px;direction:ltr;text-anchor:start;fill:#ffffff;stroke-width:0.264583"
       x="929.1377"
       y="394.02734"
       id="text7093"><tspan
         sodipodi:role="line"
         id="tspan7091"
         style="font-style:normal;font-variant:normal;font-weight:normal;font-stretch:normal;font-size:21.3333px;font-family:'Liberation Sans';-inkscape-font-specification:'Liberation Sans';text-align:start;direction:ltr;text-anchor:start;fill:#ffffff;stroke-width:0.264583"
         x="929.1377"
         y="394.02734">Welcome Screen:</tspan></text>
    <text
       xml:space="preserve"
       style="font-size:21.3333px;line-height:1.25;font-family:Aclonica;-inkscape-font-specification:Aclonica;text-align:start;letter-spacing:0px;word-spacing:0px;direction:ltr;text-anchor:start;fill:#ffffff;stroke-width:0.264583"
       x="799.47223"
       y="-8.4173737"
       id="text7093-6"><tspan
         sodipodi:role="line"
         id="tspan7091-7"
         style="font-style:normal;font-variant:normal;font-weight:normal;font-stretch:normal;font-size:21.3333px;font-family:'Liberation Sans';-inkscape-font-specification:'Liberation Sans';text-align:start;direction:ltr;text-anchor:start;fill:#ffffff;stroke-width:0.264583"
         x="799.47223"
         y="-8.4173737">Website Title:</tspan></text>
    <text
       xml:space="preserve"
       style="font-size:21.3333px;line-height:1.25;font-family:Aclonica;-inkscape-font-specification:Aclonica;text-align:start;letter-spacing:0px;word-spacing:0px;direction:ltr;text-anchor:start;fill:#ffffff;stroke-width:0.264583"
       x="2.7302999"
       y="-8.8984184"
       id="text7093-6-5"><tspan
         sodipodi:role="line"
         id="tspan7091-7-3"
         style="font-style:normal;font-variant:normal;font-weight:normal;font-stretch:normal;font-size:21.3333px;font-family:'Liberation Sans';-inkscape-font-specification:'Liberation Sans';text-align:start;direction:ltr;text-anchor:start;fill:#ffffff;stroke-width:0.264583"
         x="2.7302999"
         y="-8.8984184">About Screen:</tspan></text>
    <text
       xml:space="preserve"
       style="font-size:21.3333px;line-height:1.25;font-family:Aclonica;-inkscape-font-specification:Aclonica;text-align:start;letter-spacing:0px;word-spacing:0px;direction:ltr;text-anchor:start;fill:#ffffff;stroke-width:0.264583"
       x="1018.1498"
       y="-63.358139"
       id="text7093-6-5-5"><tspan
         sodipodi:role="line"
         id="tspan7091-7-3-6"
         style="font-style:normal;font-variant:normal;font-weight:normal;font-stretch:normal;font-size:21.3333px;font-family:'Liberation Sans';-inkscape-font-specification:'Liberation Sans';text-align:start;direction:ltr;text-anchor:start;fill:#ffffff;stroke-width:0.264583"
         x="1018.1498"
         y="-63.358139">Optional formats to consider when making your graphic</tspan></text>
  </g>
  <g
     id="layer1"
     inkscape:groupmode="layer"
     inkscape:label="Layer 1">
    <path
       style="fill:#000000;fill-opacity:1;fill-rule:nonzero;stroke:none"
       id="path176"
       d="m 119.3958,131.79503 c 0.35841,2.30862 0.62939,4.63253 1.07522,6.92588 0.75574,3.88756 1.66845,7.743 2.52795,11.60894 3.26588,14.68956 6.86452,29.29381 10.5127,43.89196 1.02056,1.69131 1.57661,3.77137 3.06166,5.07392 5.38615,4.72424 15.75115,-5.05033 20.61689,-9.46199 1.94696,-1.76528 2.27718,-4.743 3.22991,-7.19232 1.21905,-3.13402 2.18585,-6.36041 3.27878,-9.54062 1.44715,-3.61241 2.89429,-7.22483 4.34143,-10.83725 5.28402,-10.84261 11.41244,-21.44603 19.74999,-30.27405 2.48213,-2.62815 5.40963,-4.79929 8.02166,-7.29839 0.50287,-0.48112 -2.3541,1.42167 -1.68378,1.23453 4.34719,-1.21365 8.54953,-2.89649 12.8243,-4.34474 4.79152,-0.95711 9.54761,-2.11286 14.37456,-2.87134 12.20423,-1.91769 27.07264,-3.32061 39.29415,-0.68219 9.98299,2.15516 11.23082,3.98546 19.55408,9.32909 2.41972,2.52935 5.06857,4.85785 7.25915,7.58805 5.35261,6.67116 10.28672,15.90854 11.74347,24.43288 1.18618,6.94112 0.29184,9.15979 -0.74212,15.99753 -0.95854,2.59663 -1.60707,5.32979 -2.87561,7.78988 -4.29669,8.33255 -12.68143,16.61334 -21.48485,20.04672 -0.70517,0.27502 1.31639,-2.28113 0.56391,-2.19955 -4.58371,0.49699 -8.90572,2.39121 -13.35858,3.58681 -32.61133,6.80916 -66.14509,5.43699 -99.26136,5.76753 -16.71223,0.34833 -33.79248,0.7229 -49.49461,7.29402 -11.04559,4.62243 -29.865434,18.28339 -36.811927,24.83844 -3.885817,3.66684 -6.136779,8.74764 -9.205168,13.12146 -7.628107,14.85918 -13.093564,27.02682 -11.287155,44.19264 0.541626,5.14692 1.500721,10.34292 3.445826,15.13883 5.44431,13.42366 10.748486,16.10954 21.188086,25.78081 5.570874,3.1325 10.892511,6.75676 16.712623,9.39749 21.949485,9.95905 51.725565,14.9541 75.758225,12.26875 5.24948,-0.58657 10.36889,-2.02257 15.55333,-3.03385 20.19895,-7.39946 40.31502,-17.97358 52.89469,-35.98261 5.00811,-7.16959 5.5153,-9.6898 8.71357,-17.62627 5.02073,-17.16806 4.89493,-35.20453 4.05201,-52.90825 -1.57245,-18.59694 -4.17054,-37.08023 -6.0212,-55.64934 -1.24507,-13.07252 -1.88273,-26.19046 -2.13685,-39.31648 -0.12762,-4.58345 -0.61243,-9.14431 -0.92114,-13.71618 -0.0292,-3.77847 -0.46139,-7.52306 -0.78405,-11.28338 -0.0997,-5.24367 0.19588,-10.48273 0.42839,-15.71897 0.25508,-4.15155 1.80041,-7.92633 3.16728,-11.80245 1.17228,-2.68278 1.64271,-4.45416 3.78299,-6.578913 0.97534,-0.96826 4.44978,-3.226869 3.31522,-2.45125 -2.43753,1.666366 -7.39985,2.176826 -7.22537,5.124343 0.15006,2.53483 4.92935,-1.23857 7.42892,-1.685814 2.75868,-0.49361 5.55377,-0.756026 8.33065,-1.134038 11.79775,-1.303398 21.33389,-0.901974 32.08613,4.637482 2.36975,1.22087 4.69766,2.57146 6.79575,4.21593 2.18074,1.70925 3.97783,3.85818 5.96674,5.78727 7.29159,8.7434 12.71994,18.8051 16.52881,29.50935 1.8326,5.15023 2.30273,7.52005 3.58748,12.66605 1.88521,8.89608 2.47525,18.03392 2.11137,27.10777 -0.15599,6.05796 -1.3247,11.97056 -3.03995,17.75794 -1.70055,6.49649 -3.5269,12.95403 -4.80384,19.54987 -0.93605,4.33164 -1.67845,8.77111 -3.37612,12.89197 -0.92097,2.23555 -1.75511,3.59263 -2.92898,5.7101 -4.42747,5.93805 -10.08497,10.83389 -15.38181,15.97436 -5.69811,4.72255 -11.07148,9.74399 -15.91,15.34476 -6.36385,7.09672 -11.99161,14.79912 -17.54745,22.53112 -3.65297,5.31428 -7.61352,10.45187 -10.73794,16.11153 -1.62613,2.9456 -2.28064,4.64612 -3.6076,7.70316 -2.51111,5.87248 -4.11296,12.06344 -4.89355,18.39089 -0.16921,4.08695 0.99288,8.13692 2.99244,11.67464 3.68566,5.22955 9.9934,5.98291 15.88799,6.70211 6.21121,0.51113 12.4971,1.17478 18.57824,-0.62603 3.76165,-1.11394 5.12094,-2.07273 8.55854,-3.91886 8.7518,-4.86046 17.09316,-9.23914 23.31638,-17.00504 3.71302,-4.63343 6.35593,-9.97247 9.02908,-15.23053 6.4842,-13.45945 11.66179,-27.48605 15.87035,-41.80733 3.0727,-11.19502 4.62672,-22.72374 6.18995,-34.20477 0.99605,-8.50694 2.18486,-16.99108 3.39021,-25.47055 1.03531,-7.88679 1.69596,-15.81686 3.11751,-23.64814 1.25691,-6.03996 3.50848,-11.80305 5.24281,-17.70795 1.55948,-6.1523 4.77565,-11.59116 8.47906,-16.67323 2.16514,-2.87338 4.70247,-5.48731 7.56741,-7.67251 0.85075,-0.6489 3.59742,-2.31304 2.66152,-1.79443 -16.28976,9.02675 -12.58031,7.13918 -8.02998,4.90236 4.84116,-1.54396 10.74045,-2.67802 15.69578,-0.8509 1.18838,0.43818 2.22838,1.20468 3.34257,1.80702 0.99531,1.03113 2.12118,1.95053 2.98593,3.09337 6.39309,8.44905 5.59842,18.91293 5.11489,28.88 -1.59132,16.7618 -8.85786,32.08738 -15.7079,47.22544 -7.91859,17.22554 -16.59321,34.08171 -24.07238,51.50821 -5.63509,13.9406 -11.69936,27.68007 -18.29006,41.193 -4.09969,7.95566 -7.64221,16.15723 -11.15649,24.37979 -0.2915,0.61603 -1.48112,2.15866 -0.87449,1.84809 4.99935,-2.55951 10.09999,-5.14074 14.38889,-8.76702 1.47185,-1.24446 1.49509,-3.55333 2.26999,-5.31815 1.17332,-2.6722 2.363,-5.33733 3.57447,-7.99246 3.3142,-7.26362 6.7132,-14.48824 10.07094,-21.73183 9.03083,-19.47756 17.9068,-39.05301 24.73444,-59.42539 3.60933,-11.07139 6.71863,-22.30153 9.70789,-33.55402 2.03441,-7.4738 3.56114,-15.07666 5.09123,-22.66692 1.34249,-8.2675 4.90077,-15.83353 8.28643,-23.40665 2.79693,-5.86698 5.59428,-11.77334 9.9102,-16.70784 2.34421,-2.6802 3.42657,-3.42567 6.06671,-5.63738 0.93925,-0.60372 3.77096,-2.39261 2.81776,-1.81117 -3.35187,2.04456 -6.96902,3.72268 -10.01429,6.20089 -0.64037,0.52113 1.67705,-0.27454 2.47598,-0.0663 0.86509,0.22548 1.68009,0.71113 2.33458,1.32011 2.32436,2.16274 2.84773,4.46266 4.05694,7.35722 0.35409,2.16058 0.91018,4.29763 1.06229,6.48175 1.392,19.9874 -5.6043,40.1988 -11.73099,58.86703 -5.41875,15.72861 -11.51965,31.20707 -17.73737,46.63269 -4.37362,10.85058 -6.80168,16.29923 -10.68141,27.13186 -1.37188,3.83046 -2.58281,7.71667 -3.87421,11.575 -2.94291,11.26242 -6.56646,23.11684 -4.4166,34.88514 1.02092,5.58847 1.86206,6.31605 4.42041,11.08337 1.12794,1.26975 2.08019,2.72066 3.38383,3.80927 4.07572,3.40345 9.45594,4.60276 14.64216,3.70856 7.65175,-1.3193 17.96506,-9.07338 22.42861,-11.67435 8.5588,-6.88597 14.81889,-15.87013 20.05209,-25.41141 5.0543,-9.80811 8.37675,-20.33884 11.73146,-30.81057 -5.5369,3.04268 4.67881,-7.53892 2.56164,-6.53963 -4.38525,2.06979 -8.6746,4.48677 -12.43849,7.54416 -0.76414,0.62071 -0.25789,1.95312 -0.44362,2.91992 -1.32302,6.8866 -1.60593,7.36998 -3.56794,14.76986 -2.23897,8.99001 -5.45538,17.81747 -6.87064,27.00686 -0.65663,4.26354 -1.31777,8.90736 0.98882,12.91237 0.89579,1.55537 2.56187,2.51463 3.8428,3.77195 1.83317,0.58046 3.59035,1.51215 5.49952,1.74139 3.74311,0.44947 9.27226,-0.68055 12.56697,-2.38029 8.97479,-4.63007 16.56521,-8.01881 22.92793,-15.21893 1.53877,-1.74128 2.78209,-3.72283 4.17313,-5.58424 7.36937,-11.23424 10.63567,-24.30528 13.5785,-37.23726 0.96823,-3.65823 1.34009,-7.45524 2.34821,-11.1038 0.10224,-0.37 0.73958,-1.25987 0.40065,-1.07965 -14.73919,7.83721 -12.79836,3.2041 -14.46037,12.39238 -2.20422,10.98252 -4.93772,21.93106 -5.82602,33.1315 -0.1576,1.98704 -0.14823,3.9838 -0.22235,5.9757 0.18209,5.43846 1.03721,12.09578 6.83244,14.51214 4.05464,1.69062 5.94066,0.90387 10.22765,0.45265 11.35237,-4.24766 22.35008,-10.4893 29.57476,-20.41028 6.60319,-9.06754 10.13628,-19.13739 13.93228,-29.55376 8.40403,-26.71461 10.48919,-54.81353 11.65537,-82.63295 0.0838,-17.44444 -0.90557,-35.14079 -6.20494,-51.89074 -0.75579,-2.38883 -1.7465,-4.69687 -2.61975,-7.04531 -1.03721,-2.09414 -2.0265,-4.21271 -3.11162,-6.28243 -3.81239,-7.27159 -2.28792,-3.64193 -5.79672,-10.61762 -1.9904,-3.95701 -3.59326,-7.98266 -5.00749,-12.17026 -1.84928,-5.66243 -1.73387,-11.58355 -1.07266,-17.43065 0.009,-1.34837 0.79313,-2.62126 0.49104,-3.95068 0,0 -13.30197,7.10645 -13.30197,7.10645 v 0 c -0.12738,1.14043 -0.2507,2.28649 -0.41942,3.42158 -0.51803,6.05407 -0.63902,12.14596 1.47483,17.94605 1.53906,4.20741 3.26586,8.26712 5.3365,12.24869 4.49281,8.63905 1.05001,1.4744 5.90002,10.50473 1.08224,2.01506 2.06299,4.083 3.09449,6.12449 0.88067,2.29426 1.87292,4.54873 2.642,6.88276 5.43569,16.49632 6.60998,33.96923 6.56855,51.22016 -1.07366,27.75231 -3.16727,55.77463 -11.97847,82.31218 -3.9942,10.4413 -7.58711,20.31526 -14.54628,29.26113 -1.75341,2.25398 -6.22049,3.44727 -5.83113,6.27627 0.312,2.26701 4.04157,-2.73203 6.32882,-2.6601 2.04892,0.0644 -3.68842,1.79009 -5.53263,2.68514 -3.83386,0.6632 -5.72051,1.53367 -9.46401,0.28979 -5.48536,-1.82265 -6.09982,-8.27151 -6.32637,-13.08856 0.0621,-1.94298 0.0399,-3.89049 0.18619,-5.82895 0.8471,-11.22661 3.67415,-22.1919 6.13127,-33.13738 2.00329,-8.63939 2.7668,-6.26273 -12.17981,0.38976 -0.34448,0.15332 -0.14645,0.73984 -0.21138,1.11127 -0.48767,2.78974 -0.43719,2.82837 -1.03537,6.07305 -0.29607,1.60596 -0.62099,3.20647 -0.93149,4.8097 -2.83415,12.79154 -6.24171,25.65997 -13.73287,36.6201 -1.43003,1.79062 -2.71431,3.70804 -4.29007,5.37184 -1.5275,1.61286 -6.85735,3.22585 -4.98559,4.42212 2.07911,1.32879 5.61553,-1.13398 6.57065,-3.40908 0.8403,-2.00162 -3.99324,1.75564 -6.09863,2.28473 -5.5671,1.39902 -5.70623,0.74924 -10.91851,-0.47672 -1.16989,-1.01975 -2.69581,-1.73783 -3.50966,-3.05926 -2.23529,-3.62938 -1.5721,-8.25336 -1.00128,-12.12035 1.35463,-9.17699 4.54358,-17.98927 6.88617,-26.92482 0.76721,-2.70941 3.53155,-11.96397 4.00112,-15.31467 0.20545,-1.466 1.4534,-4.68278 -0.007,-4.44097 -13.05398,2.1614 -13.36345,4.79491 -15.86541,13.26461 -3.29899,10.43057 -6.6992,20.87065 -11.87449,30.55687 -5.29825,9.34758 -11.52803,18.22031 -20.25581,24.70444 2.50922,-1.3345 5.30787,-2.22878 7.52766,-4.0035 1.35563,-1.08381 -3.17311,1.45932 -4.85939,1.87022 -4.80303,1.17037 -9.93879,0.4523 -13.89732,-2.63387 -1.25392,-0.97757 -2.17695,-2.31791 -3.26542,-3.47687 -2.5372,-4.54885 -3.28552,-5.07978 -4.29677,-10.4857 -2.14594,-11.4718 1.29228,-23.07976 4.09985,-34.08638 1.23891,-3.81396 2.39652,-7.6553 3.71674,-11.44189 8.66542,-24.8536 19.87017,-48.76789 28.2387,-73.7376 6.31276,-18.92775 13.48199,-39.62032 12.36256,-59.91355 -0.12765,-2.31408 -0.68892,-4.58372 -1.03338,-6.87558 -1.49689,-3.77298 -2.86582,-8.41728 -7.02139,-10.20492 -6.71764,-2.88979 -14.99925,5.91515 -20.87277,9.79312 -2.58201,2.34554 -3.54966,3.06422 -5.84193,5.86503 -4.18232,5.11017 -6.95619,11.09149 -9.77583,17.01062 -3.45531,7.66595 -6.94697,15.36941 -8.25969,23.7541 -1.52017,7.56267 -3.10071,15.11921 -5.08821,22.57497 -2.83558,11.14981 -5.76037,22.2897 -9.28116,33.24544 -6.69453,20.24077 -15.26099,39.77629 -24.32631,59.05925 -9.70201,20.52556 -1.16538,2.55834 -10.48573,21.92801 -1.30682,2.71584 -2.60804,5.43442 -3.8946,8.15991 -0.87521,1.85408 -4.60415,5.19212 -2.59064,5.57861 10.70544,2.05489 11.23281,-0.55464 13.29626,-5.50929 3.29659,-8.1733 6.8465,-16.22799 10.7816,-24.11803 6.47166,-13.51383 12.40079,-27.25977 18.03187,-41.14526 7.45325,-17.38547 16.02061,-34.24498 23.9416,-51.41744 6.94758,-15.3269 14.38804,-30.83223 15.77821,-47.85144 0.46245,-10.67233 1.24687,-20.90493 -5.38877,-30.03994 -0.92315,-1.27085 -2.10782,-2.32943 -3.16172,-3.49414 -1.18484,-0.72422 -2.28186,-1.61704 -3.5545,-2.17266 -5.00582,-2.18549 -11.03662,-1.16173 -16.14793,-0.0371 -10.49674,4.52458 -20.42709,10.41099 -27.26819,19.63148 -3.64262,5.28419 -6.82156,10.86483 -8.37338,17.15239 -1.79812,5.90322 -3.91268,11.73396 -5.05898,17.81285 -1.30845,7.85284 -1.99389,15.78407 -3.06115,23.67078 -1.20626,8.45269 -2.31904,16.91813 -3.23981,25.40728 -1.53912,11.38603 -3.10228,22.80826 -6.09927,33.92144 -4.17588,14.29122 -9.38487,28.2661 -16.0648,41.59213 -3.59577,6.78638 -7.23558,13.28192 -12.89452,18.59402 -1.16996,1.09826 -5.21142,3.55322 -3.66642,3.11967 3.11451,-0.87395 5.73093,-3.00204 8.59639,-4.50306 -3.27993,1.92184 -4.69661,2.96816 -8.29956,4.22642 -5.93507,2.0727 -12.08985,1.56315 -18.23289,1.01052 -5.35977,-0.61481 -11.41963,-1.00571 -14.89901,-5.69352 -1.85632,-3.27798 -2.8595,-7.02497 -2.59323,-10.80807 0.8048,-6.17101 2.34547,-12.2062 4.87664,-17.91192 1.41047,-3.15381 1.90999,-4.46553 3.63057,-7.50557 3.16482,-5.59181 7.09177,-10.70089 10.72815,-15.98204 5.59638,-7.7587 11.32497,-15.43381 17.80566,-22.48766 4.89697,-5.48012 10.29453,-10.40587 15.86437,-15.1953 5.38504,-5.17223 11.1594,-10.15417 15.29428,-16.42873 1.27759,-2.43355 1.86792,-3.37361 2.83498,-5.93573 1.58674,-4.20388 2.33078,-8.6674 3.2477,-13.0461 1.34305,-6.57043 3.19661,-13.01088 4.95127,-19.48089 1.66689,-5.8874 2.66254,-11.91138 2.78053,-18.04474 0.17361,-9.1655 -0.47333,-18.39198 -2.56878,-27.33646 -1.35548,-4.93758 -2.03802,-7.80194 -3.85784,-12.72326 -4.00358,-10.82685 -9.64119,-20.97439 -16.89177,-29.96906 -2.03129,-2.02383 -3.85534,-4.27957 -6.09386,-6.071506 -2.13533,-1.709327 -4.53204,-3.082819 -6.94679,-4.367501 -11.15901,-5.936755 -20.15472,-6.494923 -32.51504,-5.259405 -1.83719,0.218471 -13.60885,1.446189 -15.70359,2.330751 -2.64263,1.115922 -16.20819,6.693453 -20.85511,12.090861 -1.89363,2.19946 -2.55573,4.31778 -3.66397,6.9282 -1.51798,4.0271 -3.09518,7.92965 -3.13583,12.3019 -0.14927,5.28038 -0.40556,10.56432 -0.29838,15.84677 0.28404,3.77996 0.57798,7.55109 0.65552,11.34129 0.3714,4.49575 1.06011,8.9648 1.22833,13.47875 0.46535,13.06726 1.45053,26.10824 2.74465,39.11914 1.8943,18.55432 4.38445,37.0441 5.877,55.63741 0.76229,17.52081 0.97359,35.36916 -4.22096,52.31431 -1.20355,2.89377 -2.19197,5.8867 -3.61065,8.6813 -3.07038,6.04822 -7.24811,11.98988 -12.01422,16.81499 -2.84145,2.87663 -6.19652,5.20098 -9.16364,7.94781 -0.13485,0.12484 0.14977,0.47339 -0.0168,0.55104 -4.48148,2.08943 -9.09672,3.87907 -13.64508,5.8186 -5.19141,1.10143 -10.31019,2.63059 -15.57422,3.3043 -24.24776,3.10331 -53.3106,-1.47524 -75.51752,-11.56177 -5.70881,-2.59298 -10.91951,-6.16608 -16.379267,-9.24911 -10.090749,-9.4163 -15.376795,-12.165 -20.583824,-25.21968 -1.879945,-4.71327 -2.791688,-9.81521 -3.275872,-14.86641 -1.586205,-16.54789 3.941961,-29.21365 11.53477,-43.43621 3.115765,-4.29068 6.67684,-8.29092 9.347295,-12.87204 0.656496,-1.1262 -0.57974,-3.05428 0.422503,-3.88785 4.082485,-3.39541 8.941342,-5.81861 13.806355,-7.94631 15.60415,-6.82441 32.69852,-7.3491 49.40753,-7.69749 17.53129,-0.17439 35.0864,0.0465 52.61182,-0.49104 10.9564,-0.33607 21.38651,-0.82678 32.2524,-2.27719 4.76171,-0.6356 9.46775,-1.63498 14.20163,-2.45247 19.32205,-4.82641 13.384,-2.36746 36.28526,-14.52276 6.89416,-3.65921 11.54959,-7.04899 16.40882,-13.12428 5.21126,-6.51541 5.17718,-8.41999 7.78047,-15.97084 0.92206,-7.08044 1.78809,-9.36893 0.4397,-16.51712 -1.61003,-8.53526 -6.93861,-18.17926 -12.31496,-24.8675 -2.26032,-2.81186 -4.96669,-5.23395 -7.45003,-7.85093 -8.5326,-5.57162 -9.79277,-7.46361 -20.05262,-9.7558 -8.32795,-1.86058 -17.02693,-1.63192 -25.45438,-1.03286 -12.78382,0.90872 -16.05813,1.88048 -28.67836,4.21146 -17.17295,5.33762 -15.73619,3.84907 -34.53082,16.58751 -2.98907,2.0259 -5.43251,4.78044 -7.86584,7.44834 -8.21995,9.01235 -14.25643,19.73252 -19.56139,30.62892 -1.50051,3.65683 -3.04789,7.29478 -4.50151,10.9705 -1.24723,3.15381 -2.21933,6.41854 -3.60028,9.51613 -1.05934,2.37618 -5.82886,5.36741 -3.70473,6.86957 2.56499,1.81393 6.2092,-1.5334 8.85491,-3.22743 2.30724,-1.47731 -14.68211,2.89519 -6.80221,-4.61327 -5.12796,-18.17787 -10.42567,-36.60347 -12.7868,-55.3899 -0.30257,-2.40745 -0.29274,-4.84394 -0.4391,-7.26591 0,0 -13.25456,6.93934 -13.25456,6.93934 z" />
    <path
       style="fill:#000000;fill-opacity:1;fill-rule:nonzero;stroke:none"
       id="path178"
       d="m 547.27448,119.88281 c -0.60515,4.69235 -0.39383,9.37178 0.44592,14.01267 1.4611,6.57595 3.35187,13.02924 4.69099,19.6399 1.47313,8.32432 2.50281,16.71618 3.74203,25.07633 1.83914,9.43497 3.082,18.94015 3.79304,28.52219 0.64212,10.63747 0.66201,21.29948 0.69912,31.95236 0.37858,11.35524 -0.98199,22.62621 -2.59664,33.83735 -1.78026,10.64792 -3.785,21.28537 -7.31212,31.50433 -3.13431,9.57602 -8.50631,18.15429 -12.5292,27.34115 -2.87471,6.75359 -5.23243,13.70125 -6.55715,20.92622 -0.56277,3.20391 -2.59138,7.96113 0.84811,10.34985 1.37733,0.95656 3.04408,1.40772 4.56611,2.11157 12.02381,4.47273 23.96779,2.43517 35.53584,-2.48966 2.5063,-1.067 4.89485,-2.39177 7.34228,-3.58766 6.38889,-3.7431 12.85923,-7.35054 19.16668,-11.2293 2.40015,-1.47597 4.6222,-3.2237 6.94045,-4.82523 2.43429,-1.68168 4.87207,-3.35835 7.31711,-5.02437 7.86894,-5.3618 15.72197,-10.73845 23.66692,-15.98704 2.74972,-1.6188 5.4009,-3.41803 8.24915,-4.85641 1.50185,-0.75845 -5.8747,2.88585 -4.19397,2.80853 2.64792,-0.12181 4.84146,-2.20115 7.38266,-2.95522 4.81181,-1.42784 10.28376,-1.99625 15.29155,-1.832 2.23286,0.0732 4.43885,0.51065 6.65827,0.76598 1.79586,0.57741 3.67143,0.94909 5.38759,1.73223 7.20269,3.28684 10.00903,8.94642 12.13913,16.07032 0.29274,0.89669 0.46457,1.84235 0.87823,2.69008 2.19116,4.4903 7.65624,5.69443 12.17516,5.85475 2.28327,-0.34131 4.56726,-0.96024 6.57558,-2.13846 9.62217,-5.64503 12.30855,-4.6704 15.83839,-11.26368 0.91371,-2.17634 1.01489,-4.53943 1.01721,-6.86592 -0.0678,-0.36543 -0.13555,-0.73086 -0.20332,-1.09629 0,0 -13.25913,7.00268 -13.25913,7.00268 v 0 c 0.0298,0.29529 0.0597,0.59058 0.0895,0.88587 -0.0534,2.11772 -0.20514,4.24915 -1.30697,6.12222 -3.20142,4.64407 -9.11452,6.1609 9.40348,-4.10427 0.6031,-0.33432 -1.15754,0.75503 -1.77363,1.06476 -1.49205,0.75011 -2.83673,1.13536 -4.41592,1.66347 -0.80357,0.0635 -1.60559,0.22974 -2.41071,0.19045 -2.37137,-0.11572 -5.61097,-1.00354 -7.4453,-2.60159 -1.41246,-1.23051 -1.68284,-2.79379 -2.2767,-4.47394 -2.47808,-7.47153 -5.56076,-13.51257 -13.10973,-17.09248 -1.79448,-0.85099 -3.76625,-1.26204 -5.64937,-1.89306 -2.28859,-0.29367 -4.56129,-0.76578 -6.86577,-0.88101 -4.85347,-0.24271 -10.92774,0.1942 -15.62299,1.47313 -2.6015,0.70861 -5.15076,1.66988 -7.55427,2.8918 -10.52022,5.34839 -18.38551,10.1723 -27.97669,15.9118 -7.95616,5.28459 -15.84276,10.66791 -23.74017,16.03986 -2.46132,1.67424 -4.90934,3.36794 -7.36782,5.04633 -2.32785,1.58922 -5.0515,2.71145 -6.99114,4.7565 -1.30155,1.37228 3.33905,-1.77747 5.00858,-2.6662 -2.41973,1.23471 -4.78123,2.59089 -7.25919,3.70414 -9.16458,4.11727 -19.28675,6.77298 -29.34445,4.74839 -1.77396,-0.3571 -3.45584,-1.07469 -5.18375,-1.61204 -1.74689,-0.73053 -4.33198,-1.08025 -5.18384,-3.17056 -0.70798,-1.73725 0.8439,-5.87927 0.95925,-7.71141 1.33155,-7.07816 3.60265,-13.89907 6.47003,-20.50572 4.11638,-9.15892 9.35287,-17.82804 12.42525,-27.44023 3.40025,-10.30816 5.40403,-20.98791 7.10575,-31.69661 1.6341,-11.28482 2.93048,-22.63318 2.57111,-34.06156 -0.0387,-10.69008 -0.0822,-21.38657 -0.71316,-32.06185 -0.73663,-9.62303 -2.00152,-19.17114 -3.73924,-28.66714 -1.22847,-8.38293 -2.31274,-16.78973 -3.79688,-25.13266 -1.31486,-6.61404 -3.06073,-13.11681 -4.48034,-19.70472 -0.73385,-4.55575 -0.8827,-9.14149 -0.11604,-13.71324 0,0 -13.40488,6.64432 -13.40488,6.64432 z" />
    <path
       style="fill:#000000;fill-opacity:1;fill-rule:nonzero;stroke:none"
       id="path180"
       d="m 465.84163,228.42569 c 1.43775,-5.12262 3.32484,-10.37144 6.90326,-14.43574 3.26201,-3.70492 5.11779,-4.4966 9.27935,-7.22171 -2.19734,1.40434 -5.9574,1.68364 -6.59202,4.21301 -0.51154,2.03882 3.95909,-1.45179 6.01226,-1.90227 4.94612,-1.08522 10.86565,-1.19462 15.78174,0.20617 1.52638,0.43493 2.94301,1.18939 4.41452,1.78408 5.29815,2.6901 9.74447,6.6779 14.71242,9.88 4.10737,2.6474 5.8808,3.51936 10.15763,5.86125 13.56432,6.20359 27.79957,7.43348 42.48169,8.12158 8.8335,0.48817 17.75338,0.19257 26.16487,-2.81342 4.01643,-1.43534 6.67817,-2.98236 10.43525,-4.93918 12.32538,-7.01472 24.82058,-13.88759 36.10996,-22.52301 5.51972,-4.05301 9.93697,-9.28107 14.76991,-14.06751 1.62462,-1.34812 3.17736,-2.81437 4.90861,-4.03138 0.39857,-0.28018 1.66279,-1.01607 1.24225,-0.77009 -12.13924,7.10009 -15.64884,8.48679 -10.45938,6.34841 2.52973,-0.80752 5.2264,-0.74275 7.85358,-0.74681 2.24574,0.005 4.12681,0.67396 5.72254,2.24058 0.80476,1.00368 0.40319,0.48795 1.20327,1.54833 0,0 12.8918,-7.64987 12.8918,-7.64987 v 0 c -0.84934,-1.14104 -0.41206,-0.57314 -1.31275,-1.703 -1.77141,-1.90647 -3.77005,-2.97928 -6.39044,-3.23488 -2.71974,-0.0123 -5.46223,-0.0509 -8.15846,0.34635 -8.04402,2.32736 -15.08646,7.66183 -21.14593,13.31133 -4.68793,4.81843 -9.21897,9.81714 -14.6794,13.8023 -4.88522,3.62399 -9.92377,6.97471 -15.11858,10.14012 -1.33714,0.81477 -5.40176,3.16738 -4.02307,2.42508 2.6441,-1.42361 5.21443,-2.98018 7.82165,-4.47028 -3.44948,1.8754 -6.63392,3.74278 -10.30462,5.18346 -8.31367,3.26295 -17.21159,3.79174 -26.04906,3.33848 -14.40899,-0.59708 -28.5574,-1.74507 -41.90487,-7.73188 -4.42621,-2.3877 -5.78818,-2.9896 -9.97564,-5.77775 -4.99244,-3.32413 -9.52045,-7.36022 -14.87479,-10.13931 -1.52874,-0.68741 -2.98862,-1.55503 -4.58622,-2.06224 -5.93989,-1.88583 -16.94099,-1.63526 -22.51336,1.06394 -6.16273,2.98516 -11.96694,6.65988 -17.95041,9.98981 -4.29815,3.04635 -5.90921,3.73009 -9.20963,7.78055 -3.55865,4.36735 -5.42624,9.84485 -7.09123,15.13341 0,0 13.4733,-6.49791 13.4733,-6.49791 z" />
  </g>
</svg>
